<svg width="97" height="41" viewBox="0 0 97 41" fill="none" xmlns="http://www.w3.org/2000/svg">
<g clip-path="url(#clip0_0_58)">
<path d="M84.7949 0H12.2051C5.86175 0 0.719421 5.14233 0.719421 11.4857V28.7143C0.719421 35.0577 5.86175 40.2 12.2051 40.2H84.7949C91.1382 40.2 96.2806 35.0577 96.2806 28.7143V11.4857C96.2806 5.14233 91.1382 0 84.7949 0Z" fill="white"/>
<path fill-rule="evenodd" clip-rule="evenodd" d="M20.8191 11.4857C19.0612 11.4857 17.9447 13.678 15.7116 18.0625V18.0625L14.5122 20.4173C12.6199 24.1329 11.6737 25.9906 12.512 27.3523C13.3504 28.7143 15.4402 28.7143 19.6197 28.7143H22.0184C26.198 28.7143 28.2878 28.7143 29.126 27.3523C29.9644 25.9906 29.0182 24.1329 27.1259 20.4173L25.9265 18.0625C23.6935 13.678 22.5769 11.4857 20.8191 11.4857ZM18.0671 18.4531L16.7676 19.8429C14.7173 22.0358 13.6921 23.1322 14.0025 24.2397C14.313 25.3471 15.7616 25.7613 18.659 26.5894L20.3218 27.0649C23.2191 27.8933 24.6677 28.3075 25.5197 27.5322C26.3715 26.7571 26.0848 25.2856 25.5117 22.3427L25.1482 20.4775C24.4717 17.0046 24.1336 15.2682 22.915 14.9198C21.6964 14.5714 20.4867 15.8653 18.0671 18.4531ZM22.9892 18.6526C22.3891 18.2787 21.5402 18.7874 19.8426 19.8048L18.9308 20.3512C17.4921 21.2134 16.7728 21.6445 16.7685 22.2863C16.7642 22.9282 17.4776 23.3727 18.9045 24.2615L19.7234 24.7717C21.1502 25.6607 21.8636 26.1052 22.4404 25.8199C23.0171 25.5346 23.0904 24.7012 23.2369 23.0339L23.3298 21.9774C23.5028 20.0101 23.5893 19.0265 22.9892 18.6526ZM22.7629 20.5116C22.4636 20.1801 21.8588 20.3418 20.6492 20.6651L19.9995 20.8388C18.9745 21.1128 18.462 21.2498 18.3472 21.6392C18.2324 22.0285 18.5883 22.4226 19.3001 23.2108L19.7086 23.6631H19.7086C20.4204 24.4513 20.7763 24.8452 21.1766 24.7722C21.577 24.6991 21.7672 24.2052 22.1477 23.2175L22.3888 22.5914C22.8378 21.4259 23.0623 20.8431 22.7629 20.5116Z" fill="black"/>
<path fill-rule="evenodd" clip-rule="evenodd" d="M20.8191 11.4857C19.0612 11.4857 17.9447 13.678 15.7116 18.0625V18.0625L14.5122 20.4173C12.6199 24.1329 11.6737 25.9906 12.512 27.3523C13.3504 28.7143 15.4402 28.7143 19.6197 28.7143H22.0184C26.198 28.7143 28.2878 28.7143 29.126 27.3523C29.9644 25.9906 29.0182 24.1329 27.1259 20.4173L25.9265 18.0625C23.6935 13.678 22.5769 11.4857 20.8191 11.4857ZM18.0671 18.4531L16.7676 19.8429C14.7173 22.0358 13.6921 23.1322 14.0025 24.2397C14.313 25.3471 15.7616 25.7613 18.659 26.5894L20.3218 27.0649C23.2191 27.8933 24.6677 28.3075 25.5197 27.5322C26.3715 26.7571 26.0848 25.2856 25.5117 22.3427L25.1482 20.4775C24.4717 17.0046 24.1336 15.2682 22.915 14.9198C21.6964 14.5714 20.4867 15.8653 18.0671 18.4531ZM22.9892 18.6526C22.3891 18.2787 21.5402 18.7874 19.8426 19.8048L18.9308 20.3512C17.4921 21.2134 16.7728 21.6445 16.7685 22.2863C16.7642 22.9282 17.4776 23.3727 18.9045 24.2615L19.7234 24.7717C21.1502 25.6607 21.8636 26.1052 22.4404 25.8199C23.0171 25.5346 23.0904 24.7012 23.2369 23.0339L23.3298 21.9774C23.5028 20.0101 23.5893 19.0265 22.9892 18.6526ZM22.7629 20.5116C22.4636 20.1801 21.8588 20.3418 20.6492 20.6651L19.9995 20.8388C18.9745 21.1128 18.462 21.2498 18.3472 21.6392C18.2324 22.0285 18.5883 22.4226 19.3001 23.2108L19.7086 23.6631H19.7086C20.4204 24.4513 20.7763 24.8452 21.1766 24.7722C21.577 24.6991 21.7672 24.2052 22.1477 23.2175L22.3888 22.5914C22.8378 21.4259 23.0623 20.8431 22.7629 20.5116Z" fill="url(#paint0_radial_0_58)"/>
<path d="M37.1539 16.5784C38.1693 16.5784 38.9838 16.8506 39.5974 17.3948C40.2215 17.939 40.5335 18.7074 40.5335 19.6998V23.0934H38.6453V22.2929H38.6294C37.9841 22.976 37.0903 23.3174 35.9479 23.3174C35.2921 23.296 34.8109 23.0934 34.504 22.7091C34.1867 22.3036 34.028 21.8554 34.028 21.3645C34.028 20.7456 34.2501 20.26 34.6944 19.9079C35.1387 19.5557 35.6677 19.3797 36.281 19.3797H38.6453C38.6241 19.0275 38.4973 18.7394 38.2646 18.5153C38.0319 18.2805 37.7039 18.1631 37.2807 18.1631C36.9952 18.1631 36.7361 18.2165 36.5032 18.3232C36.281 18.4299 36.1331 18.5473 36.0589 18.6754L35.9638 18.8514L34.2501 18.4032C34.705 17.1867 35.673 16.5784 37.1539 16.5784ZM36.7094 21.9248C37.2068 21.9034 37.651 21.77 38.0425 21.5246C38.4442 21.2471 38.6453 20.9057 38.6453 20.5002H37.5982C37.048 20.5002 36.646 20.5535 36.3922 20.6602C36.1489 20.7563 36.0061 20.943 35.9638 21.2205C35.9321 21.4339 35.9744 21.6046 36.0908 21.7327C36.2071 21.8501 36.4133 21.9141 36.7094 21.9248Z" fill="black"/>
<path d="M46.0282 23.0773C45.2667 23.3226 44.5578 23.4242 43.9019 23.3814C43.2144 23.3387 42.6061 23.1467 42.0773 22.8052C41.5591 22.4637 41.231 22.0368 41.0934 21.5246L42.6962 21.0924C42.7807 21.3592 43.0028 21.5459 43.3626 21.6527C43.6587 21.7914 44.0924 21.8394 44.6637 21.7967C45.2244 21.754 45.5786 21.61 45.7268 21.3645C45.7902 21.2578 45.7955 21.1458 45.7426 21.0284C45.6898 20.9003 45.5892 20.815 45.4412 20.7723C45.3353 20.7509 44.8435 20.6976 43.9656 20.6122C43.151 20.5375 42.6061 20.4575 42.3311 20.3721C41.8552 20.2013 41.5219 19.9186 41.3314 19.5237C41.1518 19.1182 41.1412 18.654 41.2997 18.1311C41.469 17.5869 41.871 17.176 42.5057 16.8986C43.151 16.6211 43.9231 16.5251 44.8224 16.6105C45.4677 16.6638 46.0017 16.8452 46.4249 17.1547C46.8586 17.4535 47.1283 17.843 47.2342 18.3232L45.7109 18.7394C45.5839 18.3766 45.1872 18.1525 44.5208 18.0671C43.8861 17.9924 43.4101 18.0777 43.0929 18.3232C42.9447 18.4619 42.8813 18.5953 42.9024 18.7234C42.9236 18.8514 43.0187 18.9528 43.188 19.0275C43.2619 19.0809 43.6692 19.1342 44.4098 19.1876L45.5363 19.2516C46.0546 19.3156 46.4513 19.449 46.7263 19.6518C47.012 19.8545 47.213 20.18 47.3293 20.6282C47.4457 21.1404 47.3823 21.626 47.1388 22.0848C46.8956 22.5437 46.5255 22.8745 46.0282 23.0773Z" fill="black"/>
<path d="M50.9589 16.8666H52.5141V18.6113H50.975V19.7958C50.975 21.1618 51.4032 21.706 52.2601 21.4286V23.2533C51.9957 23.3068 51.7788 23.3334 51.6095 23.3334C50.774 23.3334 50.1182 23.0934 49.642 22.6131C49.166 22.1222 48.928 21.4019 48.928 20.4521V18.6113H47.8649V16.8666C48.4679 16.8666 48.8699 16.7652 49.0709 16.5624C49.2719 16.349 49.4304 15.9008 49.5469 15.2178H50.9589V16.8666Z" fill="black"/>
<path d="M55.9797 16.8666V17.779C56.3077 17.2561 56.7678 16.8986 57.3602 16.7065C57.9524 16.5144 58.5185 16.5358 59.0581 16.7705L58.4709 18.6754C58.4603 18.6647 58.4128 18.6433 58.328 18.6113C58.2541 18.5793 58.127 18.5526 57.9472 18.5313C57.7781 18.5099 57.5982 18.5046 57.4078 18.5153C56.4556 18.6007 55.9797 19.1983 55.9797 20.3081V23.0934H53.9488V16.8666H55.9797Z" fill="black"/>
<path d="M62.2251 16.5784C63.2407 16.5784 64.0552 16.8506 64.6688 17.3948C65.2927 17.939 65.6049 18.7074 65.6049 19.6998V23.0934H63.7166V22.2929H63.7008C63.0555 22.976 62.1617 23.3174 61.0193 23.3174C60.3635 23.296 59.882 23.0934 59.5753 22.7091C59.2579 22.3036 59.0994 21.8554 59.0994 21.3645C59.0994 20.7456 59.3215 20.26 59.7658 19.9079C60.21 19.5557 60.7389 19.3797 61.3524 19.3797H63.7166C63.6955 19.0275 63.5685 18.7394 63.3358 18.5153C63.1031 18.2805 62.7753 18.1631 62.3521 18.1631C62.0666 18.1631 61.8073 18.2165 61.5746 18.3232C61.3524 18.4299 61.2045 18.5473 61.1303 18.6754L61.0352 18.8514L59.3215 18.4032C59.7763 17.1867 60.7441 16.5784 62.2251 16.5784ZM61.7808 21.9248C62.2779 21.9034 62.7224 21.77 63.1136 21.5246C63.5156 21.2471 63.7166 20.9057 63.7166 20.5002H62.6694C62.1194 20.5002 61.7174 20.5535 61.4636 20.6602C61.2203 20.7563 61.0775 20.943 61.0352 21.2205C61.0035 21.4339 61.0458 21.6046 61.162 21.7327C61.2785 21.8501 61.4847 21.9141 61.7808 21.9248Z" fill="black"/>
<path d="M69.0736 23.0773H67.0427V13.5531H69.0736V23.0773Z" fill="black"/>
<path d="M75.4165 19.6518V16.8666H77.4476V22.469C77.4476 23.6323 77.1301 24.6194 76.4954 25.4303C75.8607 26.2414 75.0145 26.6468 73.9566 26.6468C72.8885 26.6255 71.8993 26.0866 70.9897 25.0301L72.005 23.7977C72.6186 24.4485 73.2744 24.7473 73.9727 24.694C74.9986 24.63 75.4801 23.7389 75.4165 22.0208C74.8771 22.8105 74.1312 23.2053 73.1793 23.2053C72.4387 23.2053 71.8042 22.9386 71.2752 22.405C70.757 21.8821 70.4976 21.2045 70.4976 20.3721V16.8666H72.5129V19.6518C72.5129 20.0893 72.6503 20.4628 72.9255 20.7723C73.211 21.0817 73.5549 21.2365 73.9566 21.2365C74.3586 21.2365 74.7025 21.0817 74.9881 20.7723C75.2738 20.4628 75.4165 20.0893 75.4165 19.6518Z" fill="black"/>
<path d="M82.6052 16.8666H84.7949L82.4465 20.052L84.5569 23.0934H82.3672L81.2246 21.4446L80.003 23.0934H77.7975L80.1457 19.9079L78.0355 16.8666H80.2252L81.3834 18.5313L82.6052 16.8666Z" fill="black"/>
</g>
<defs>
<radialGradient id="paint0_radial_0_58" cx="0" cy="0" r="1" gradientUnits="userSpaceOnUse" gradientTransform="translate(29.1641 11.4857) rotate(135) scale(24.3649)">
<stop stop-color="#1B31F8"/>
<stop offset="0.559722" stop-color="#348EF8"/>
<stop offset="1" stop-color="#621BF8"/>
</radialGradient>
<clipPath id="clip0_0_58">
<rect width="95.5611" height="40.2" fill="white" transform="translate(0.719421)"/>
</clipPath>
</defs>
</svg>
