<svg width="643" height="213" viewBox="0 0 643 213" fill="none" xmlns="http://www.w3.org/2000/svg">
<g clip-path="url(#clip0_96_79)">
<path d="M0 92.1081C0 48.6879 0 26.9778 13.4522 13.4889C26.9043 0 48.5553 0 91.8571 0H120.563C163.865 0 185.515 0 198.968 13.4889C212.42 26.9778 212.42 48.6879 212.42 92.1081V120.892C212.42 164.312 212.42 186.022 198.968 199.511C185.515 213 163.865 213 120.563 213H91.8571C48.5553 213 26.9043 213 13.4522 199.511C0 186.022 0 164.312 0 120.892V92.1081Z" fill="url(#paint0_linear_96_79)"/>
<path fill-rule="evenodd" clip-rule="evenodd" d="M177.973 86.3006L147.146 152.554H59.5314L28.7053 86.2989L64.6852 110.162L103.339 66.2026L141.992 110.162L177.973 86.3006ZM103.247 76.2499L112.424 90.4599L103.247 104.669L94.0686 90.4599L103.247 76.2499Z" fill="#0C4EE7"/>
<path d="M266.719 134.53C264.032 134.53 261.965 133.805 260.518 132.354C259.072 130.904 258.348 128.831 258.348 126.137V69.8704C258.348 67.1762 259.072 65.1038 260.518 63.6531C261.965 62.2024 264.032 61.4771 266.719 61.4771H291.727C296.894 61.4771 301.303 62.2369 304.954 63.7567C308.605 65.2765 311.361 67.4526 313.221 70.2849C315.15 73.1172 316.115 76.5022 316.115 80.4398C316.115 84.7919 314.875 88.4878 312.395 91.5273C309.914 94.5669 306.504 96.6048 302.164 97.641V95.983C307.193 96.8811 311.086 98.8845 313.841 101.993C316.666 105.033 318.078 109.005 318.078 113.91C318.078 120.403 315.839 125.481 311.361 129.142C306.883 132.734 300.717 134.53 292.863 134.53H266.719ZM273.642 122.614H290.693C294.827 122.614 297.858 121.819 299.787 120.231C301.716 118.573 302.681 116.155 302.681 112.977C302.681 109.799 301.716 107.416 299.787 105.827C297.858 104.238 294.827 103.444 290.693 103.444H273.642V122.614ZM273.642 91.5273H288.937C292.932 91.5273 295.895 90.7674 297.824 89.2476C299.753 87.7279 300.717 85.4482 300.717 82.4086C300.717 79.4381 299.753 77.193 297.824 75.6732C295.895 74.1534 292.932 73.3935 288.937 73.3935H273.642V91.5273Z" fill="white"/>
<path d="M355.209 135.67C349.216 135.67 344.049 134.599 339.708 132.458C335.437 130.247 332.13 127.173 329.788 123.235C327.514 119.229 326.378 114.531 326.378 109.143C326.378 103.893 327.48 99.2988 329.685 95.3612C331.889 91.3545 334.955 88.2458 338.882 86.0352C342.878 83.7556 347.39 82.6157 352.419 82.6157C356.071 82.6157 359.377 83.2375 362.34 84.4809C365.302 85.6553 367.851 87.3823 369.987 89.662C372.123 91.8726 373.742 94.6013 374.844 97.8481C375.946 101.026 376.497 104.584 376.497 108.521C376.497 109.834 376.084 110.835 375.257 111.526C374.43 112.148 373.225 112.459 371.64 112.459H339.192V104.376H365.233L363.58 105.827C363.58 102.995 363.166 100.646 362.34 98.7807C361.513 96.8464 360.307 95.3957 358.723 94.4286C357.207 93.4614 355.313 92.9779 353.039 92.9779C350.49 92.9779 348.32 93.5651 346.529 94.7395C344.738 95.9138 343.36 97.6063 342.395 99.8169C341.431 102.028 340.949 104.687 340.949 107.796V108.625C340.949 113.875 342.154 117.743 344.565 120.23C347.046 122.717 350.697 123.961 355.519 123.961C357.173 123.961 359.067 123.754 361.203 123.339C363.339 122.925 365.337 122.268 367.197 121.37C368.781 120.61 370.194 120.369 371.434 120.645C372.674 120.852 373.638 121.405 374.327 122.303C375.016 123.201 375.395 124.237 375.464 125.411C375.602 126.586 375.36 127.76 374.74 128.935C374.12 130.04 373.087 130.972 371.64 131.732C369.298 133.045 366.646 134.012 363.683 134.634C360.79 135.325 357.965 135.67 355.209 135.67Z" fill="white"/>
<path d="M410.175 135.67C405.422 135.67 401.426 134.876 398.188 133.287C395.019 131.698 392.642 129.384 391.058 126.344C389.542 123.305 388.784 119.471 388.784 114.842V95.3612H384.444C382.515 95.3612 380.999 94.8431 379.897 93.8069C378.864 92.7707 378.347 91.3545 378.347 89.5584C378.347 87.6241 378.864 86.1734 379.897 85.2063C380.999 84.1701 382.515 83.652 384.444 83.652H388.784V75.7767C388.784 73.1516 389.473 71.1828 390.851 69.8703C392.229 68.4887 394.158 67.7979 396.638 67.7979C399.187 67.7979 401.116 68.4887 402.425 69.8703C403.734 71.1828 404.388 73.1516 404.388 75.7767V83.652H414.206C416.135 83.652 417.616 84.1701 418.649 85.2063C419.683 86.1734 420.199 87.6241 420.199 89.5584C420.199 91.3545 419.683 92.7707 418.649 93.8069C417.616 94.8431 416.135 95.3612 414.206 95.3612H404.388V114.22C404.388 117.122 405.043 119.298 406.352 120.749C407.73 122.199 409.9 122.925 412.862 122.925C413.896 122.925 414.86 122.821 415.756 122.614C416.651 122.406 417.478 122.268 418.236 122.199C419.2 122.13 419.993 122.441 420.613 123.132C421.233 123.754 421.543 125.17 421.543 127.38C421.543 129.038 421.267 130.489 420.716 131.732C420.165 132.976 419.2 133.874 417.823 134.427C416.927 134.772 415.687 135.048 414.102 135.256C412.587 135.532 411.278 135.67 410.175 135.67Z" fill="white"/>
<path d="M436.454 135.463C433.836 135.463 431.838 134.738 430.46 133.287C429.082 131.836 428.394 129.798 428.394 127.173V68.7305C428.394 66.1055 429.082 64.1021 430.46 62.7205C431.838 61.2698 433.836 60.5444 436.454 60.5444C439.003 60.5444 440.967 61.2698 442.344 62.7205C443.722 64.1021 444.411 66.1055 444.411 68.7305V93.2889H444.618L472.106 64.4821C473.277 63.2386 474.483 62.306 475.723 61.6843C477.032 60.9935 478.513 60.6481 480.167 60.6481C482.578 60.6481 484.3 61.2698 485.333 62.5132C486.436 63.7567 486.918 65.2074 486.78 66.8654C486.642 68.5233 485.885 70.0776 484.507 71.5283L456.915 99.817L457.019 92.8744L485.954 123.857C487.538 125.584 488.33 127.346 488.33 129.142C488.399 130.938 487.814 132.458 486.574 133.701C485.402 134.876 483.646 135.463 481.303 135.463C479.305 135.463 477.686 135.048 476.446 134.219C475.275 133.39 473.966 132.182 472.519 130.593L444.618 101.164H444.411V127.173C444.411 129.798 443.722 131.836 442.344 133.287C441.035 134.738 439.072 135.463 436.454 135.463Z" fill="white"/>
<path d="M509.482 135.359C506.933 135.359 504.97 134.634 503.592 133.183C502.283 131.663 501.628 129.556 501.628 126.862V91.4236C501.628 88.6604 502.283 86.5534 503.592 85.1027C504.97 83.5829 506.933 82.823 509.482 82.823C511.962 82.823 513.857 83.5829 515.166 85.1027C516.544 86.5534 517.233 88.6604 517.233 91.4236V126.862C517.233 129.556 516.578 131.663 515.269 133.183C513.96 134.634 512.031 135.359 509.482 135.359ZM509.482 74.3261C506.589 74.3261 504.35 73.6698 502.765 72.3573C501.25 70.9756 500.492 69.0414 500.492 66.5544C500.492 63.9984 501.25 62.0642 502.765 60.7516C504.35 59.37 506.589 58.6792 509.482 58.6792C512.376 58.6792 514.58 59.37 516.096 60.7516C517.612 62.0642 518.369 63.9984 518.369 66.5544C518.369 69.0414 517.612 70.9756 516.096 72.3573C514.58 73.6698 512.376 74.3261 509.482 74.3261Z" fill="white"/>
<path d="M537.134 135.463C534.585 135.463 532.621 134.772 531.243 133.39C529.934 132.009 529.28 130.04 529.28 127.484V90.6982C529.28 88.1422 529.934 86.2079 531.243 84.8954C532.621 83.5138 534.516 82.823 536.927 82.823C539.407 82.823 541.302 83.5138 542.611 84.8954C543.92 86.2079 544.574 88.1422 544.574 90.6982V96.6046L543.437 93.1851C545.022 89.8002 547.364 87.2096 550.464 85.4135C553.633 83.5483 557.216 82.6157 561.212 82.6157C565.276 82.6157 568.618 83.4102 571.236 84.999C573.853 86.5188 575.818 88.8676 577.127 92.0453C578.436 95.1539 579.09 99.1261 579.09 103.962V127.484C579.09 130.04 578.402 132.009 577.024 133.39C575.715 134.772 573.785 135.463 571.236 135.463C568.755 135.463 566.826 134.772 565.449 133.39C564.14 132.009 563.485 130.04 563.485 127.484V104.687C563.485 101.164 562.831 98.6425 561.522 97.1227C560.282 95.5339 558.353 94.7395 555.735 94.7395C552.428 94.7395 549.775 95.7757 547.778 97.8481C545.849 99.9205 544.884 102.684 544.884 106.138V127.484C544.884 132.803 542.301 135.463 537.134 135.463Z" fill="white"/>
<path d="M615.127 154.322C611.407 154.322 607.824 154.011 604.38 153.389C601.004 152.768 598.007 151.835 595.389 150.592C593.805 149.901 592.668 149.003 591.979 147.897C591.359 146.792 591.083 145.618 591.152 144.374C591.29 143.131 591.703 142.025 592.392 141.058C593.15 140.091 594.08 139.4 595.183 138.986C596.285 138.64 597.456 138.744 598.696 139.297C601.727 140.678 604.518 141.576 607.067 141.991C609.684 142.405 611.924 142.613 613.784 142.613C618.193 142.613 621.5 141.611 623.704 139.608C625.909 137.604 627.011 134.53 627.011 130.385V122.51H627.941C626.908 125.688 624.772 128.278 621.534 130.282C618.296 132.285 614.714 133.287 610.787 133.287C606.24 133.287 602.279 132.25 598.903 130.178C595.527 128.037 592.909 125.066 591.049 121.267C589.189 117.398 588.259 112.942 588.259 107.899C588.259 104.1 588.776 100.646 589.809 97.5372C590.911 94.4286 592.427 91.769 594.356 89.5584C596.354 87.3478 598.731 85.6553 601.486 84.4809C604.311 83.2375 607.411 82.6157 610.787 82.6157C614.851 82.6157 618.434 83.6174 621.534 85.6208C624.703 87.555 626.804 90.111 627.838 93.2887L626.804 96.6046V90.6982C626.804 88.1422 627.459 86.2079 628.768 84.8954C630.146 83.5138 632.075 82.823 634.555 82.823C637.035 82.823 638.929 83.5138 640.238 84.8954C641.547 86.2079 642.202 88.1422 642.202 90.6982V128.624C642.202 137.121 639.86 143.511 635.175 147.794C630.559 152.146 623.876 154.322 615.127 154.322ZM615.437 121.577C617.779 121.577 619.777 121.025 621.431 119.92C623.153 118.814 624.496 117.26 625.461 115.257C626.425 113.184 626.908 110.732 626.908 107.899C626.908 103.616 625.84 100.3 623.704 97.9517C621.637 95.5339 618.882 94.325 615.437 94.325C613.095 94.325 611.062 94.8776 609.34 95.9829C607.618 97.0191 606.274 98.5735 605.31 100.646C604.414 102.649 603.966 105.067 603.966 107.899C603.966 112.182 605 115.533 607.067 117.951C609.133 120.369 611.923 121.577 615.437 121.577Z" fill="white"/>
</g>
<defs>
<linearGradient id="paint0_linear_96_79" x1="106.21" y1="0" x2="106.21" y2="213" gradientUnits="userSpaceOnUse">
<stop stop-color="#F8F9FC"/>
<stop offset="1" stop-color="white"/>
</linearGradient>
<clipPath id="clip0_96_79">
<rect width="643" height="213" fill="white"/>
</clipPath>
</defs>
</svg>
