<?xml version="1.0" encoding="UTF-8" standalone="no"?>
<!DOCTYPE svg PUBLIC "-//W3C//DTD SVG 1.1//EN" "http://www.w3.org/Graphics/SVG/1.1/DTD/svg11.dtd">
<svg width="100%" height="100%" viewBox="0 0 160 37" version="1.1" xmlns="http://www.w3.org/2000/svg" xmlnsXlink="http://www.w3.org/1999/xlink" xmlSpace="preserve" xmlnsSerif="http://www.serif.com/" style="fill-rule:evenodd;clip-rule:evenodd;stroke-linejoin:round;stroke-miterlimit:2;">
    <g transform="matrix(1.0587,0,0,1,14.9746,0)">
        <path d="M0,16C0,8.458 0,4.686 2.343,2.343C4.686,0 8.458,0 16,0L21,0C28.543,0 32.314,0 34.657,2.343C37,4.686 37,8.458 37,16L37,21C37,28.543 37,32.314 34.657,34.657C32.314,37 28.543,37 21,37L16,37C8.458,37 4.686,37 2.343,34.657C0,32.314 0,28.543 0,21L0,16Z" style="fill:url(#_Linear1);fill-rule:nonzero;"/>
    </g>
    <g transform="matrix(1.0587,0,0,1,14.9746,0)">
        <path d="M21,1L16,1C12.201,1 9.451,1.002 7.355,1.284C5.287,1.562 4.005,2.095 3.05,3.05C2.095,4.005 1.562,5.287 1.284,7.355C1.002,9.451 1,12.201 1,16L1,21C1,24.799 1.002,27.549 1.284,29.645C1.562,31.712 2.095,32.995 3.05,33.95C4.005,34.905 5.287,35.438 7.355,35.716C9.451,35.998 12.201,36 16,36L21,36C24.799,36 27.549,35.998 29.645,35.716C31.712,35.438 32.995,34.905 33.95,33.95C34.905,32.995 35.438,31.712 35.716,29.645C35.998,27.549 36,24.799 36,21L36,16C36,12.201 35.998,9.451 35.716,7.355C35.438,5.287 34.905,4.005 33.95,3.05C32.995,2.095 31.712,1.562 29.645,1.284C27.549,1.002 24.799,1 21,1ZM2.343,2.343C0,4.686 0,8.458 0,16L0,21C0,28.543 0,32.314 2.343,34.657C4.686,37 8.458,37 16,37L21,37C28.543,37 32.314,37 34.657,34.657C37,32.314 37,28.543 37,21L37,16C37,8.458 37,4.686 34.657,2.343C32.314,0 28.543,0 21,0L16,0C8.458,0 4.686,0 2.343,2.343Z" style="fill:white;"/>
    </g>
    <g transform="matrix(1.0587,0,0,1,14.9746,0)">
        <path d="M31,14.991L25.63,26.5L10.369,26.5L5,14.991L11.267,19.136L18,11.5L24.733,19.136L31,14.991ZM17.984,13.245L19.583,15.714L17.984,18.182L16.385,15.714L17.984,13.245Z" style="fill:rgb(12,78,231);"/>
    </g>
    <g transform="matrix(1.0587,0,0,1,14.9746,0)">
        <path d="M46.458,23.369C45.99,23.369 45.63,23.243 45.378,22.991C45.126,22.739 45,22.379 45,21.911L45,12.137C45,11.669 45.126,11.309 45.378,11.057C45.63,10.805 45.99,10.679 46.458,10.679L50.814,10.679C51.714,10.679 52.482,10.811 53.118,11.075C53.754,11.339 54.234,11.717 54.558,12.209C54.894,12.701 55.062,13.289 55.062,13.973C55.062,14.729 54.846,15.371 54.414,15.899C53.982,16.427 53.388,16.781 52.632,16.961L52.632,16.673C53.508,16.829 54.186,17.177 54.666,17.717C55.158,18.245 55.404,18.935 55.404,19.787C55.404,20.915 55.014,21.797 54.234,22.433C53.454,23.057 52.38,23.369 51.012,23.369L46.458,23.369ZM47.664,21.299L50.634,21.299C51.354,21.299 51.882,21.161 52.218,20.885C52.554,20.597 52.722,20.177 52.722,19.625C52.722,19.073 52.554,18.659 52.218,18.383C51.882,18.107 51.354,17.969 50.634,17.969L47.664,17.969L47.664,21.299ZM47.664,15.899L50.328,15.899C51.024,15.899 51.54,15.767 51.876,15.503C52.212,15.239 52.38,14.843 52.38,14.315C52.38,13.799 52.212,13.409 51.876,13.145C51.54,12.881 51.024,12.749 50.328,12.749L47.664,12.749L47.664,15.899Z" style="fill-rule:nonzero;"/>
    </g>
    <g transform="matrix(1.0587,0,0,1,14.9746,0)">
        <path d="M61.872,23.567C60.828,23.567 59.928,23.381 59.172,23.009C58.428,22.625 57.852,22.091 57.444,21.407C57.048,20.711 56.85,19.895 56.85,18.959C56.85,18.047 57.042,17.249 57.426,16.565C57.81,15.869 58.344,15.329 59.028,14.945C59.724,14.549 60.51,14.351 61.386,14.351C62.022,14.351 62.598,14.459 63.114,14.675C63.63,14.879 64.074,15.179 64.446,15.575C64.818,15.959 65.1,16.433 65.292,16.997C65.484,17.549 65.58,18.167 65.58,18.851C65.58,19.079 65.508,19.253 65.364,19.373C65.22,19.481 65.01,19.535 64.734,19.535L59.082,19.535L59.082,18.131L63.618,18.131L63.33,18.383C63.33,17.891 63.258,17.483 63.114,17.159C62.97,16.823 62.76,16.571 62.484,16.403C62.22,16.235 61.89,16.151 61.494,16.151C61.05,16.151 60.672,16.253 60.36,16.457C60.048,16.661 59.808,16.955 59.64,17.339C59.472,17.723 59.388,18.185 59.388,18.725L59.388,18.869C59.388,19.781 59.598,20.453 60.018,20.885C60.45,21.317 61.086,21.533 61.926,21.533C62.214,21.533 62.544,21.497 62.916,21.425C63.288,21.353 63.636,21.239 63.96,21.083C64.236,20.951 64.482,20.909 64.698,20.957C64.914,20.993 65.082,21.089 65.202,21.245C65.322,21.401 65.388,21.581 65.4,21.785C65.424,21.989 65.382,22.193 65.274,22.397C65.166,22.589 64.986,22.751 64.734,22.883C64.326,23.111 63.864,23.279 63.348,23.387C62.844,23.507 62.352,23.567 61.872,23.567Z" style="fill-rule:nonzero;"/>
    </g>
    <g transform="matrix(1.0587,0,0,1,14.9746,0)">
        <path d="M71.446,23.567C70.618,23.567 69.922,23.429 69.358,23.153C68.806,22.877 68.392,22.475 68.116,21.947C67.852,21.419 67.72,20.753 67.72,19.949L67.72,16.565L66.964,16.565C66.628,16.565 66.364,16.475 66.172,16.295C65.992,16.115 65.902,15.869 65.902,15.557C65.902,15.221 65.992,14.969 66.172,14.801C66.364,14.621 66.628,14.531 66.964,14.531L67.72,14.531L67.72,13.163C67.72,12.707 67.84,12.365 68.08,12.137C68.32,11.897 68.656,11.777 69.088,11.777C69.532,11.777 69.868,11.897 70.096,12.137C70.324,12.365 70.438,12.707 70.438,13.163L70.438,14.531L72.148,14.531C72.484,14.531 72.742,14.621 72.922,14.801C73.102,14.969 73.192,15.221 73.192,15.557C73.192,15.869 73.102,16.115 72.922,16.295C72.742,16.475 72.484,16.565 72.148,16.565L70.438,16.565L70.438,19.841C70.438,20.345 70.552,20.723 70.78,20.975C71.02,21.227 71.398,21.353 71.914,21.353C72.094,21.353 72.262,21.335 72.418,21.299C72.574,21.263 72.718,21.239 72.85,21.227C73.018,21.215 73.156,21.269 73.264,21.389C73.372,21.497 73.426,21.743 73.426,22.127C73.426,22.415 73.378,22.667 73.282,22.883C73.186,23.099 73.018,23.255 72.778,23.351C72.622,23.411 72.406,23.459 72.13,23.495C71.866,23.543 71.638,23.567 71.446,23.567Z" style="fill-rule:nonzero;"/>
    </g>
    <g transform="matrix(1.0587,0,0,1,14.9746,0)">
        <path d="M76.023,23.531C75.567,23.531 75.219,23.405 74.979,23.153C74.739,22.901 74.619,22.547 74.619,22.091L74.619,11.939C74.619,11.483 74.739,11.135 74.979,10.895C75.219,10.643 75.567,10.517 76.023,10.517C76.467,10.517 76.809,10.643 77.049,10.895C77.289,11.135 77.409,11.483 77.409,11.939L77.409,16.205L77.445,16.205L82.233,11.201C82.437,10.985 82.647,10.823 82.863,10.715C83.091,10.595 83.349,10.535 83.637,10.535C84.057,10.535 84.357,10.643 84.537,10.859C84.729,11.075 84.813,11.327 84.789,11.615C84.765,11.903 84.633,12.173 84.393,12.425L79.587,17.339L79.605,16.133L84.645,21.515C84.921,21.815 85.059,22.121 85.059,22.433C85.071,22.745 84.969,23.009 84.753,23.225C84.549,23.429 84.243,23.531 83.835,23.531C83.487,23.531 83.205,23.459 82.989,23.315C82.785,23.171 82.557,22.961 82.305,22.685L77.445,17.573L77.409,17.573L77.409,22.091C77.409,22.547 77.289,22.901 77.049,23.153C76.821,23.405 76.479,23.531 76.023,23.531Z" style="fill-rule:nonzero;"/>
    </g>
    <g transform="matrix(1.0587,0,0,1,14.9746,0)">
        <path d="M88.743,23.513C88.299,23.513 87.957,23.387 87.717,23.135C87.489,22.871 87.375,22.505 87.375,22.037L87.375,15.881C87.375,15.401 87.489,15.035 87.717,14.783C87.957,14.519 88.299,14.387 88.743,14.387C89.175,14.387 89.505,14.519 89.733,14.783C89.973,15.035 90.093,15.401 90.093,15.881L90.093,22.037C90.093,22.505 89.979,22.871 89.751,23.135C89.523,23.387 89.187,23.513 88.743,23.513ZM88.743,12.911C88.239,12.911 87.849,12.797 87.573,12.569C87.309,12.329 87.177,11.993 87.177,11.561C87.177,11.117 87.309,10.781 87.573,10.553C87.849,10.313 88.239,10.193 88.743,10.193C89.247,10.193 89.631,10.313 89.895,10.553C90.159,10.781 90.291,11.117 90.291,11.561C90.291,11.993 90.159,12.329 89.895,12.569C89.631,12.797 89.247,12.911 88.743,12.911Z" style="fill-rule:nonzero;"/>
    </g>
    <g transform="matrix(1.0587,0,0,1,14.9746,0)">
        <path d="M93.56,23.531C93.116,23.531 92.774,23.411 92.534,23.171C92.306,22.931 92.192,22.589 92.192,22.145L92.192,15.755C92.192,15.311 92.306,14.975 92.534,14.747C92.774,14.507 93.104,14.387 93.524,14.387C93.956,14.387 94.286,14.507 94.514,14.747C94.742,14.975 94.856,15.311 94.856,15.755L94.856,16.781L94.658,16.187C94.934,15.599 95.342,15.149 95.882,14.837C96.434,14.513 97.058,14.351 97.754,14.351C98.462,14.351 99.044,14.489 99.5,14.765C99.956,15.029 100.298,15.437 100.526,15.989C100.754,16.529 100.868,17.219 100.868,18.059L100.868,22.145C100.868,22.589 100.748,22.931 100.508,23.171C100.28,23.411 99.944,23.531 99.5,23.531C99.068,23.531 98.732,23.411 98.492,23.171C98.264,22.931 98.15,22.589 98.15,22.145L98.15,18.185C98.15,17.573 98.036,17.135 97.808,16.871C97.592,16.595 97.256,16.457 96.8,16.457C96.224,16.457 95.762,16.637 95.414,16.997C95.078,17.357 94.91,17.837 94.91,18.437L94.91,22.145C94.91,23.069 94.46,23.531 93.56,23.531Z" style="fill-rule:nonzero;"/>
    </g>
    <g transform="matrix(1.0587,0,0,1,14.9746,0)">
        <path d="M107.145,26.807C106.497,26.807 105.873,26.753 105.273,26.645C104.685,26.537 104.163,26.375 103.707,26.159C103.431,26.039 103.233,25.883 103.113,25.691C103.005,25.499 102.957,25.295 102.969,25.079C102.993,24.863 103.065,24.671 103.185,24.503C103.317,24.335 103.479,24.215 103.671,24.143C103.863,24.083 104.067,24.101 104.283,24.197C104.811,24.437 105.297,24.593 105.741,24.665C106.197,24.737 106.587,24.773 106.911,24.773C107.679,24.773 108.255,24.599 108.639,24.251C109.023,23.903 109.215,23.369 109.215,22.649L109.215,21.281L109.377,21.281C109.197,21.833 108.825,22.283 108.261,22.631C107.697,22.979 107.073,23.153 106.389,23.153C105.597,23.153 104.907,22.973 104.319,22.613C103.731,22.241 103.275,21.725 102.951,21.065C102.627,20.393 102.465,19.619 102.465,18.743C102.465,18.083 102.555,17.483 102.735,16.943C102.927,16.403 103.191,15.941 103.527,15.557C103.875,15.173 104.289,14.879 104.769,14.675C105.261,14.459 105.801,14.351 106.389,14.351C107.097,14.351 107.721,14.525 108.261,14.873C108.813,15.209 109.179,15.653 109.359,16.205L109.179,16.781L109.179,15.755C109.179,15.311 109.293,14.975 109.521,14.747C109.761,14.507 110.097,14.387 110.529,14.387C110.961,14.387 111.291,14.507 111.519,14.747C111.747,14.975 111.861,15.311 111.861,15.755L111.861,22.343C111.861,23.819 111.453,24.929 110.637,25.673C109.833,26.429 108.669,26.807 107.145,26.807ZM107.199,21.119C107.607,21.119 107.955,21.023 108.243,20.831C108.543,20.639 108.777,20.369 108.945,20.021C109.113,19.661 109.197,19.235 109.197,18.743C109.197,17.999 109.011,17.423 108.639,17.015C108.279,16.595 107.799,16.385 107.199,16.385C106.791,16.385 106.437,16.481 106.137,16.673C105.837,16.853 105.603,17.123 105.435,17.483C105.279,17.831 105.201,18.251 105.201,18.743C105.201,19.487 105.381,20.069 105.741,20.489C106.101,20.909 106.587,21.119 107.199,21.119Z" style="fill-rule:nonzero;"/>
    </g>
    <g transform="matrix(1,0,0,1,5.17201,0)">
        <path d="M139.853,22.343C139.853,23.819 139.421,24.929 138.558,25.673C137.706,26.429 136.474,26.807 134.861,26.807C134.175,26.807 133.514,26.753 132.879,26.645C132.256,26.537 131.704,26.375 131.221,26.159C130.929,26.039 130.719,25.883 130.592,25.691C130.478,25.499 130.427,25.295 130.439,25.079C130.465,24.863 130.541,24.671 130.668,24.503C130.808,24.335 130.979,24.215 131.183,24.143C131.386,24.083 131.602,24.101 131.831,24.197C132.39,24.437 132.904,24.593 133.374,24.665C133.857,24.737 134.27,24.773 134.613,24.773C135.426,24.773 136.036,24.599 136.442,24.251C136.849,23.903 137.052,23.369 137.052,22.649L137.052,22.415C137.039,22.325 137.033,22.229 137.033,22.127L137.033,22.058L137.047,22.036L137.052,22.029L137.052,21.281L137.091,21.265L137.033,21.101L137.033,22.058C136.757,22.472 136.395,22.801 135.947,23.045C135.362,23.369 134.702,23.531 133.965,23.531C133.215,23.531 132.599,23.393 132.116,23.117C131.634,22.853 131.271,22.445 131.03,21.893C130.789,21.353 130.668,20.663 130.668,19.823L130.668,15.737C130.668,15.293 130.795,14.951 131.049,14.711C131.29,14.471 131.646,14.351 132.116,14.351C132.574,14.351 132.93,14.471 133.184,14.711C133.425,14.951 133.546,15.293 133.546,15.737L133.546,19.697C133.546,20.309 133.666,20.747 133.908,21.011C134.136,21.287 134.492,21.425 134.975,21.425C135.585,21.425 136.074,21.245 136.442,20.885C136.798,20.525 136.976,20.045 136.976,19.445L136.976,15.737C136.976,14.813 137.452,14.351 138.405,14.351C138.875,14.351 139.237,14.471 139.491,14.711C139.733,14.951 139.853,15.293 139.853,15.737L139.853,22.343Z" style="fill-rule:nonzero;"/>
    </g>
    <defs>
        <linearGradient id="_Linear1" x1="0" y1="0" x2="1" y2="0" gradientUnits="userSpaceOnUse" gradientTransform="matrix(2.2656e-15,37,-37,2.2656e-15,18.5,0)"><stop offset="0" style="stop-color:rgb(248,249,252);stop-opacity:1"/><stop offset="1" style="stop-color:white;stop-opacity:1"/></linearGradient>
    </defs>
</svg>
