<svg width="25" height="24" viewBox="0 0 25 24" fill="none" xmlns="http://www.w3.org/2000/svg">
<g clip-path="url(#clip0_13_360)">
<path fill-rule="evenodd" clip-rule="evenodd" d="M8.68607 1.42862C8.72815 1.40966 8.77383 1.3999 8.81999 1.3999H16.18C16.2261 1.3999 16.2718 1.40966 16.314 1.42862L21.2713 3.66094C21.3293 3.68694 21.3783 3.72926 21.4126 3.7827L24.2383 8.18238C24.3157 8.30294 24.3064 8.4599 24.2153 8.5703L12.7521 22.4602C12.6212 22.6189 12.3788 22.6189 12.2479 22.4602L0.784786 8.5703C0.693666 8.4599 0.684306 8.30294 0.761746 8.18238L3.58735 3.7827C3.62175 3.72926 3.67079 3.68694 3.72855 3.66094L8.68607 1.42862Z" fill="url(#paint0_linear_13_360)"/>
<path fill-rule="evenodd" clip-rule="evenodd" d="M8.68607 1.42862C8.72815 1.40966 8.77383 1.3999 8.81999 1.3999H16.18C16.2261 1.3999 16.2718 1.40966 16.314 1.42862L21.2713 3.66094C21.3293 3.68694 21.3783 3.72926 21.4126 3.7827L24.2383 8.18238C24.3157 8.30294 24.3064 8.4599 24.2153 8.5703H0.784786C0.693666 8.4599 0.684306 8.30294 0.761746 8.18238L3.58735 3.7827C3.62175 3.72926 3.67079 3.68694 3.72855 3.66094L8.68607 1.42862Z" fill="url(#paint1_linear_13_360)"/>
<path d="M12.5002 5.77148L16.9725 11.681H8.02808L12.5002 5.77148Z" fill="#FF95A7"/>
<path d="M12.2332 22.4251C12.3702 22.5907 12.6256 22.5873 12.7582 22.4182L14.0159 20.8144L16.9725 11.6812H8.02808L10.8998 20.8144L12.2332 22.4251Z" fill="url(#paint2_linear_13_360)"/>
<path d="M12.5003 5.77142L4.57227 4.59766L8.02811 11.681L12.5003 5.77142Z" fill="#FCD6DC"/>
<path d="M0.784668 8.57038L4.57171 4.59766L8.02755 11.681L0.784668 8.57038Z" fill="#F9B3BF"/>
<path d="M12.5 5.77142L20.428 4.59766L16.9722 11.681L12.5 5.77142Z" fill="#FF6E86"/>
<path d="M24.2155 8.57038L20.4285 4.59766L16.9727 11.681L24.2155 8.57038Z" fill="#FAA4B2"/>
<path d="M24.2152 8.57067L20.4282 4.59795L21.2821 3.66699C21.2981 3.67523 21.3449 3.69547 21.3921 3.75387C21.4529 3.82883 23.2269 6.46051 24.2382 8.18283C24.331 8.34075 24.2838 8.48795 24.2152 8.57067Z" fill="#F0798D"/>
<path d="M0.784767 8.57067L4.57165 4.59795L3.71789 3.66699C3.70181 3.67523 3.65509 3.69547 3.60773 3.75387C3.54693 3.82883 1.77301 6.46051 0.761647 8.18283C0.668927 8.34075 0.716127 8.48795 0.784767 8.57067Z" fill="#FF8DA0"/>
<path d="M5.8844 12.8942C5.85264 12.909 5.82208 12.8717 5.84312 12.8436L6.85856 11.4893C7.15664 11.0917 7.21096 10.5624 6.9996 10.1128L6.28 8.58128C6.26512 8.5496 6.30264 8.51912 6.33072 8.54016L7.68784 9.55344C8.08632 9.85096 8.61664 9.90512 9.0672 9.69424L10.6018 8.97616C10.6336 8.96128 10.6641 8.99872 10.6431 9.02672L9.62768 10.381C9.32952 10.7787 9.27528 11.3079 9.48656 11.7576L10.2062 13.289C10.221 13.3207 10.1836 13.3512 10.1554 13.3302L8.79832 12.3169C8.39992 12.0194 7.86952 11.9652 7.41896 12.1761L5.8844 12.8942Z" fill="white"/>
</g>
<defs>
<linearGradient id="paint0_linear_13_360" x1="0.709426" y1="8.71182" x2="24.88" y2="8.45862" gradientUnits="userSpaceOnUse">
<stop stop-color="#FE899D"/>
<stop offset="0.495027" stop-color="#F1687F"/>
<stop offset="1" stop-color="#EA6178"/>
</linearGradient>
<linearGradient id="paint1_linear_13_360" x1="3.57287" y1="3.6691" x2="21.006" y2="3.5847" gradientUnits="userSpaceOnUse">
<stop stop-color="#FD9EAE"/>
<stop offset="1" stop-color="#FC9BAB"/>
</linearGradient>
<linearGradient id="paint2_linear_13_360" x1="12.5002" y1="11.6812" x2="12.5002" y2="22.5472" gradientUnits="userSpaceOnUse">
<stop stop-color="#FAB3BF"/>
<stop offset="1" stop-color="#F6A3B1"/>
</linearGradient>
<clipPath id="clip0_13_360">
<rect width="24" height="24" fill="white" transform="translate(0.5)"/>
</clipPath>
</defs>
</svg>
