<svg width="112" height="37" viewBox="0 0 112 37" fill="none" xmlns="http://www.w3.org/2000/svg">
<path d="M0 16C0 8.45753 0 4.68629 2.34315 2.34315C4.68629 0 8.45753 0 16 0H21C28.5425 0 32.3137 0 34.6569 2.34315C37 4.68629 37 8.45753 37 16V21C37 28.5425 37 32.3137 34.6569 34.6569C32.3137 37 28.5425 37 21 37H16C8.45753 37 4.68629 37 2.34315 34.6569C0 32.3137 0 28.5425 0 21V16Z" fill="url(#paint0_linear_1_35)"/>
<path fill-rule="evenodd" clip-rule="evenodd" d="M21 1H16C12.2005 1 9.45146 1.00212 7.35507 1.28398C5.28745 1.56196 4.00506 2.09545 3.05025 3.05025C2.09545 4.00506 1.56196 5.28745 1.28398 7.35507C1.00212 9.45146 1 12.2005 1 16V21C1 24.7995 1.00212 27.5485 1.28398 29.6449C1.56196 31.7125 2.09545 32.9949 3.05025 33.9497C4.00506 34.9046 5.28745 35.438 7.35507 35.716C9.45146 35.9979 12.2005 36 16 36H21C24.7995 36 27.5485 35.9979 29.6449 35.716C31.7125 35.438 32.9949 34.9046 33.9497 33.9497C34.9046 32.9949 35.438 31.7125 35.716 29.6449C35.9979 27.5485 36 24.7995 36 21V16C36 12.2005 35.9979 9.45146 35.716 7.35507C35.438 5.28745 34.9046 4.00506 33.9497 3.05025C32.9949 2.09545 31.7125 1.56196 29.6449 1.28398C27.5485 1.00212 24.7995 1 21 1ZM2.34315 2.34315C0 4.68629 0 8.45753 0 16V21C0 28.5425 0 32.3137 2.34315 34.6569C4.68629 37 8.45753 37 16 37H21C28.5425 37 32.3137 37 34.6569 34.6569C37 32.3137 37 28.5425 37 21V16C37 8.45753 37 4.68629 34.6569 2.34315C32.3137 0 28.5425 0 21 0H16C8.45753 0 4.68629 0 2.34315 2.34315Z" fill="white"/>
<path fill-rule="evenodd" clip-rule="evenodd" d="M31 14.9912L25.6304 26.5L10.3694 26.5L5 14.9909L11.2671 19.1361L17.9999 11.5L24.7327 19.1361L31 14.9912ZM17.9839 13.2453L19.5825 15.7137L17.9839 18.182L16.3852 15.7137L17.9839 13.2453Z" fill="#0C4EE7"/>
<path d="M46.458 23.369C45.99 23.369 45.63 23.243 45.378 22.991C45.126 22.739 45 22.379 45 21.911V12.137C45 11.669 45.126 11.309 45.378 11.057C45.63 10.805 45.99 10.679 46.458 10.679H50.814C51.714 10.679 52.482 10.811 53.118 11.075C53.754 11.339 54.234 11.717 54.558 12.209C54.894 12.701 55.062 13.289 55.062 13.973C55.062 14.729 54.846 15.371 54.414 15.899C53.982 16.427 53.388 16.781 52.632 16.961V16.673C53.508 16.829 54.186 17.177 54.666 17.717C55.158 18.245 55.404 18.935 55.404 19.787C55.404 20.915 55.014 21.797 54.234 22.433C53.454 23.057 52.38 23.369 51.012 23.369H46.458ZM47.664 21.299H50.634C51.354 21.299 51.882 21.161 52.218 20.885C52.554 20.597 52.722 20.177 52.722 19.625C52.722 19.073 52.554 18.659 52.218 18.383C51.882 18.107 51.354 17.969 50.634 17.969H47.664V21.299ZM47.664 15.899H50.328C51.024 15.899 51.54 15.767 51.876 15.503C52.212 15.239 52.38 14.843 52.38 14.315C52.38 13.799 52.212 13.409 51.876 13.145C51.54 12.881 51.024 12.749 50.328 12.749H47.664V15.899Z" fill="black"/>
<path d="M61.8716 23.567C60.8276 23.567 59.9276 23.381 59.1716 23.009C58.4276 22.625 57.8516 22.091 57.4436 21.407C57.0476 20.711 56.8496 19.895 56.8496 18.959C56.8496 18.047 57.0416 17.249 57.4256 16.565C57.8096 15.869 58.3436 15.329 59.0276 14.945C59.7236 14.549 60.5096 14.351 61.3856 14.351C62.0216 14.351 62.5976 14.459 63.1136 14.675C63.6296 14.879 64.0736 15.179 64.4456 15.575C64.8176 15.959 65.0996 16.433 65.2916 16.997C65.4836 17.549 65.5796 18.167 65.5796 18.851C65.5796 19.079 65.5076 19.253 65.3636 19.373C65.2196 19.481 65.0096 19.535 64.7336 19.535H59.0816V18.131H63.6176L63.3296 18.383C63.3296 17.891 63.2576 17.483 63.1136 17.159C62.9696 16.823 62.7596 16.571 62.4836 16.403C62.2196 16.235 61.8896 16.151 61.4936 16.151C61.0496 16.151 60.6716 16.253 60.3596 16.457C60.0476 16.661 59.8076 16.955 59.6396 17.339C59.4716 17.723 59.3876 18.185 59.3876 18.725V18.869C59.3876 19.781 59.5976 20.453 60.0176 20.885C60.4496 21.317 61.0856 21.533 61.9256 21.533C62.2136 21.533 62.5436 21.497 62.9156 21.425C63.2876 21.353 63.6356 21.239 63.9596 21.083C64.2356 20.951 64.4816 20.909 64.6976 20.957C64.9136 20.993 65.0816 21.089 65.2016 21.245C65.3216 21.401 65.3876 21.581 65.3996 21.785C65.4236 21.989 65.3816 22.193 65.2736 22.397C65.1656 22.589 64.9856 22.751 64.7336 22.883C64.3256 23.111 63.8636 23.279 63.3476 23.387C62.8436 23.507 62.3516 23.567 61.8716 23.567Z" fill="black"/>
<path d="M71.4458 23.567C70.6178 23.567 69.9218 23.429 69.3578 23.153C68.8058 22.877 68.3918 22.475 68.1158 21.947C67.8518 21.419 67.7198 20.753 67.7198 19.949V16.565H66.9638C66.6278 16.565 66.3638 16.475 66.1718 16.295C65.9918 16.115 65.9018 15.869 65.9018 15.557C65.9018 15.221 65.9918 14.969 66.1718 14.801C66.3638 14.621 66.6278 14.531 66.9638 14.531H67.7198V13.163C67.7198 12.707 67.8398 12.365 68.0798 12.137C68.3198 11.897 68.6558 11.777 69.0878 11.777C69.5318 11.777 69.8678 11.897 70.0958 12.137C70.3238 12.365 70.4378 12.707 70.4378 13.163V14.531H72.1478C72.4838 14.531 72.7418 14.621 72.9218 14.801C73.1018 14.969 73.1918 15.221 73.1918 15.557C73.1918 15.869 73.1018 16.115 72.9218 16.295C72.7418 16.475 72.4838 16.565 72.1478 16.565H70.4378V19.841C70.4378 20.345 70.5518 20.723 70.7798 20.975C71.0198 21.227 71.3978 21.353 71.9138 21.353C72.0938 21.353 72.2618 21.335 72.4178 21.299C72.5738 21.263 72.7178 21.239 72.8498 21.227C73.0178 21.215 73.1558 21.269 73.2638 21.389C73.3718 21.497 73.4258 21.743 73.4258 22.127C73.4258 22.415 73.3778 22.667 73.2818 22.883C73.1858 23.099 73.0178 23.255 72.7778 23.351C72.6218 23.411 72.4058 23.459 72.1298 23.495C71.8658 23.543 71.6378 23.567 71.4458 23.567Z" fill="black"/>
<path d="M76.0231 23.531C75.5671 23.531 75.2191 23.405 74.9791 23.153C74.7391 22.901 74.6191 22.547 74.6191 22.091V11.939C74.6191 11.483 74.7391 11.135 74.9791 10.895C75.2191 10.643 75.5671 10.517 76.0231 10.517C76.4671 10.517 76.8091 10.643 77.0491 10.895C77.2891 11.135 77.4091 11.483 77.4091 11.939V16.205H77.4451L82.2331 11.201C82.4371 10.985 82.6471 10.823 82.8631 10.715C83.0911 10.595 83.3491 10.535 83.6371 10.535C84.0571 10.535 84.3571 10.643 84.5371 10.859C84.7291 11.075 84.8131 11.327 84.7891 11.615C84.7651 11.903 84.6331 12.173 84.3931 12.425L79.5871 17.339L79.6051 16.133L84.6451 21.515C84.9211 21.815 85.0591 22.121 85.0591 22.433C85.0711 22.745 84.9691 23.009 84.7531 23.225C84.5491 23.429 84.2431 23.531 83.8351 23.531C83.4871 23.531 83.2051 23.459 82.9891 23.315C82.7851 23.171 82.5571 22.961 82.3051 22.685L77.4451 17.573H77.4091V22.091C77.4091 22.547 77.2891 22.901 77.0491 23.153C76.8211 23.405 76.4791 23.531 76.0231 23.531Z" fill="black"/>
<path d="M88.7434 23.513C88.2994 23.513 87.9574 23.387 87.7174 23.135C87.4894 22.871 87.3754 22.505 87.3754 22.037V15.881C87.3754 15.401 87.4894 15.035 87.7174 14.783C87.9574 14.519 88.2994 14.387 88.7434 14.387C89.1754 14.387 89.5054 14.519 89.7334 14.783C89.9734 15.035 90.0934 15.401 90.0934 15.881V22.037C90.0934 22.505 89.9794 22.871 89.7514 23.135C89.5234 23.387 89.1874 23.513 88.7434 23.513ZM88.7434 12.911C88.2394 12.911 87.8494 12.797 87.5734 12.569C87.3094 12.329 87.1774 11.993 87.1774 11.561C87.1774 11.117 87.3094 10.781 87.5734 10.553C87.8494 10.313 88.2394 10.193 88.7434 10.193C89.2474 10.193 89.6314 10.313 89.8954 10.553C90.1594 10.781 90.2914 11.117 90.2914 11.561C90.2914 11.993 90.1594 12.329 89.8954 12.569C89.6314 12.797 89.2474 12.911 88.7434 12.911Z" fill="black"/>
<path d="M93.5598 23.531C93.1158 23.531 92.7738 23.411 92.5338 23.171C92.3058 22.931 92.1918 22.589 92.1918 22.145V15.755C92.1918 15.311 92.3058 14.975 92.5338 14.747C92.7738 14.507 93.1038 14.387 93.5238 14.387C93.9558 14.387 94.2858 14.507 94.5138 14.747C94.7418 14.975 94.8558 15.311 94.8558 15.755V16.781L94.6578 16.187C94.9338 15.599 95.3418 15.149 95.8818 14.837C96.4338 14.513 97.0578 14.351 97.7538 14.351C98.4618 14.351 99.0438 14.489 99.4998 14.765C99.9558 15.029 100.298 15.437 100.526 15.989C100.754 16.529 100.868 17.219 100.868 18.059V22.145C100.868 22.589 100.748 22.931 100.508 23.171C100.28 23.411 99.9438 23.531 99.4998 23.531C99.0678 23.531 98.7318 23.411 98.4918 23.171C98.2638 22.931 98.1498 22.589 98.1498 22.145V18.185C98.1498 17.573 98.0358 17.135 97.8078 16.871C97.5918 16.595 97.2558 16.457 96.7998 16.457C96.2238 16.457 95.7618 16.637 95.4138 16.997C95.0778 17.357 94.9098 17.837 94.9098 18.437V22.145C94.9098 23.069 94.4598 23.531 93.5598 23.531Z" fill="black"/>
<path d="M107.145 26.807C106.497 26.807 105.873 26.753 105.273 26.645C104.685 26.537 104.163 26.375 103.707 26.159C103.431 26.039 103.233 25.883 103.113 25.691C103.005 25.499 102.957 25.295 102.969 25.079C102.993 24.863 103.065 24.671 103.185 24.503C103.317 24.335 103.479 24.215 103.671 24.143C103.863 24.083 104.067 24.101 104.283 24.197C104.811 24.437 105.297 24.593 105.741 24.665C106.197 24.737 106.587 24.773 106.911 24.773C107.679 24.773 108.255 24.599 108.639 24.251C109.023 23.903 109.215 23.369 109.215 22.649V21.281H109.377C109.197 21.833 108.825 22.283 108.261 22.631C107.697 22.979 107.073 23.153 106.389 23.153C105.597 23.153 104.907 22.973 104.319 22.613C103.731 22.241 103.275 21.725 102.951 21.065C102.627 20.393 102.465 19.619 102.465 18.743C102.465 18.083 102.555 17.483 102.735 16.943C102.927 16.403 103.191 15.941 103.527 15.557C103.875 15.173 104.289 14.879 104.769 14.675C105.261 14.459 105.801 14.351 106.389 14.351C107.097 14.351 107.721 14.525 108.261 14.873C108.813 15.209 109.179 15.653 109.359 16.205L109.179 16.781V15.755C109.179 15.311 109.293 14.975 109.521 14.747C109.761 14.507 110.097 14.387 110.529 14.387C110.961 14.387 111.291 14.507 111.519 14.747C111.747 14.975 111.861 15.311 111.861 15.755V22.343C111.861 23.819 111.453 24.929 110.637 25.673C109.833 26.429 108.669 26.807 107.145 26.807ZM107.199 21.119C107.607 21.119 107.955 21.023 108.243 20.831C108.543 20.639 108.777 20.369 108.945 20.021C109.113 19.661 109.197 19.235 109.197 18.743C109.197 17.999 109.011 17.423 108.639 17.015C108.279 16.595 107.799 16.385 107.199 16.385C106.791 16.385 106.437 16.481 106.137 16.673C105.837 16.853 105.603 17.123 105.435 17.483C105.279 17.831 105.201 18.251 105.201 18.743C105.201 19.487 105.381 20.069 105.741 20.489C106.101 20.909 106.587 21.119 107.199 21.119Z" fill="black"/>
<defs>
<linearGradient id="paint0_linear_1_35" x1="18.5" y1="0" x2="18.5" y2="37" gradientUnits="userSpaceOnUse">
<stop stop-color="#F8F9FC"/>
<stop offset="1" stop-color="white"/>
</linearGradient>
</defs>
</svg>
