<svg width="768" height="288" viewBox="0 0 768 288" fill="none" xmlns="http://www.w3.org/2000/svg">
<path fill-rule="evenodd" clip-rule="evenodd" d="M9.39553 18.7581C16.2991 32.541 19.7509 39.4325 24.7229 45.223C29.695 51.0136 35.9894 55.4728 48.5781 64.3911L312.165 251.125C346.866 275.708 364.216 288 384 288C403.784 288 421.134 275.708 455.835 251.125L719.422 64.3912C732.011 55.4728 738.305 51.0136 743.277 45.2231C748.249 39.4325 751.701 32.541 758.604 18.7582L768 5.86769e-06L2.51778e-05 -6.1273e-05L9.39553 18.7581Z" fill="#DCE9E4"/>
<path fill-rule="evenodd" clip-rule="evenodd" d="M314.163 213.526C347.977 236.509 364.884 248 384 248C403.116 248 420.023 236.509 453.837 213.526L768 -2.05696e-06L2.16808e-05 -6.91977e-05L314.163 213.526Z" fill="#2B6B55"/>
</svg>
