<svg xmlns="http://www.w3.org/2000/svg" width="37" height="37" viewBox="0 0 37 37" fill="none">
<path d="M0 16C0 8.45753 0 4.68629 2.34315 2.34315C4.68629 0 8.45753 0 16 0H21C28.5425 0 32.3137 0 34.6569 2.34315C37 4.68629 37 8.45753 37 16V21C37 28.5425 37 32.3137 34.6569 34.6569C32.3137 37 28.5425 37 21 37H16C8.45753 37 4.68629 37 2.34315 34.6569C0 32.3137 0 28.5425 0 21V16Z" fill="url(#paint0_linear_1_35)"/>
<path fill-rule="evenodd" clip-rule="evenodd" d="M21 1H16C12.2005 1 9.45146 1.00212 7.35507 1.28398C5.28745 1.56196 4.00506 2.09545 3.05025 3.05025C2.09545 4.00506 1.56196 5.28745 1.28398 7.35507C1.00212 9.45146 1 12.2005 1 16V21C1 24.7995 1.00212 27.5485 1.28398 29.6449C1.56196 31.7125 2.09545 32.9949 3.05025 33.9497C4.00506 34.9046 5.28745 35.438 7.35507 35.716C9.45146 35.9979 12.2005 36 16 36H21C24.7995 36 27.5485 35.9979 29.6449 35.716C31.7125 35.438 32.9949 34.9046 33.9497 33.9497C34.9046 32.9949 35.438 31.7125 35.716 29.6449C35.9979 27.5485 36 24.7995 36 21V16C36 12.2005 35.9979 9.45146 35.716 7.35507C35.438 5.28745 34.9046 4.00506 33.9497 3.05025C32.9949 2.09545 31.7125 1.56196 29.6449 1.28398C27.5485 1.00212 24.7995 1 21 1ZM2.34315 2.34315C0 4.68629 0 8.45753 0 16V21C0 28.5425 0 32.3137 2.34315 34.6569C4.68629 37 8.45753 37 16 37H21C28.5425 37 32.3137 37 34.6569 34.6569C37 32.3137 37 28.5425 37 21V16C37 8.45753 37 4.68629 34.6569 2.34315C32.3137 0 28.5425 0 21 0H16C8.45753 0 4.68629 0 2.34315 2.34315Z" fill="white"/>
<path fill-rule="evenodd" clip-rule="evenodd" d="M31 14.9912L25.6304 26.5L10.3694 26.5L5 14.9909L11.2671 19.1361L17.9999 11.5L24.7327 19.1361L31 14.9912ZM17.9839 13.2453L19.5825 15.7137L17.9839 18.182L16.3852 15.7137L17.9839 13.2453Z" fill="#0C4EE7"/>
</svg>