<svg width="24" height="25" viewBox="0 0 24 25" fill="none" xmlns="http://www.w3.org/2000/svg">
<g clip-path="url(#clip0_2_10690)">
<g filter="url(#filter0_d_2_10690)">
<mask id="mask0_2_10690" style="mask-type:alpha" maskUnits="userSpaceOnUse" x="2" y="3" width="20" height="19">
<path d="M8.81603 3.52441C8.85103 3.50833 8.88913 3.5 8.92763 3.5H15.0654C15.1039 3.5 15.142 3.50833 15.1771 3.52441L19.8701 5.4308C19.9186 5.4531 19.9596 5.489 19.9879 5.5343L21.7855 9.2644C21.8499 9.3671 21.8422 9.4994 21.7662 9.594L12.2068 21.3988C12.1557 21.4628 12.0784 21.5 11.9966 21.5C11.9147 21.5 11.8374 21.4628 11.7863 21.3988L2.22683 9.594C2.15083 9.4995 2.14313 9.3671 2.20763 9.2644L4.00523 5.5251C4.03363 5.4799 4.07453 5.444 4.12293 5.4216L8.81603 3.52441Z" fill="white"/>
</mask>
<g mask="url(#mask0_2_10690)">
<path d="M21.8247 7.84442H11.9922V21.4289H21.8247V7.84442Z" fill="#2A92F2"/>
<path d="M11.9966 7.84442H2.16406V21.4289H11.9966V7.84442Z" fill="#4795F1"/>
<path d="M21.8287 3.5H2.16406V8.6718H21.8287V3.5Z" fill="#86C5FF"/>
<path d="M11.9934 7.07208L15.7481 11.6463H8.28906L11.9934 7.07208Z" fill="#8BC0FF"/>
<path d="M11.9931 24.1182L15.7481 11.6465H8.28906L11.9931 24.1182Z" fill="#ADD3FF"/>
<path d="M11.9951 7.07212L4.69531 6.22382L8.29081 11.6464L11.9951 7.07212Z" fill="#D3E0FF"/>
<path d="M2.16406 9.36132L4.69696 6.22382L8.29236 11.6464L2.16406 9.36132Z" fill="#9FBAFF"/>
<path d="M2.16406 9.36129L4.69696 6.22369L4.08056 5.43079C3.66096 5.48449 2.92886 7.54449 2.16406 9.36129Z" fill="#7498F8"/>
<path d="M12 7.07212L19.1729 6.22382L15.7547 11.6464L12 7.07212Z" fill="#4C99F3"/>
<path d="M21.8273 9.36148L19.1684 6.22388L15.75 11.6465L21.8273 9.36148Z" fill="#96C7FF"/>
<path d="M21.8308 9.36129L19.1719 6.22369L19.872 5.43079C20.4617 5.81159 21.2483 7.72669 21.8308 9.36129Z" fill="#4481FD"/>
<path d="M6.99694 9.80951C6.97844 9.76381 7.04764 9.71601 7.08224 9.75061C7.41554 10.0832 8.09483 10.7008 8.58283 10.7437C9.06183 10.7858 9.88304 10.3206 10.3126 10.0517C10.3549 10.0252 10.4151 10.0932 10.3853 10.1336C10.1284 10.4826 9.71924 11.1156 9.67154 11.6631C9.62034 12.2513 9.95693 13.0802 10.1418 13.4838C10.1621 13.5281 10.0991 13.5759 10.0632 13.5437C9.70423 13.2221 8.92833 12.5781 8.42703 12.534C7.92163 12.4895 7.10903 13.003 6.73973 13.2583C6.70073 13.2852 6.64594 13.2331 6.66994 13.1918C6.88314 12.825 7.30114 12.0414 7.35184 11.4592C7.39964 10.9101 7.15104 10.1922 6.99694 9.80951Z" fill="white"/>
</g>
</g>
</g>
<defs>
<filter id="filter0_d_2_10690" x="-137.836" y="-133.5" width="299.665" height="298" filterUnits="userSpaceOnUse" color-interpolation-filters="sRGB">
<feFlood flood-opacity="0" result="BackgroundImageFix"/>
<feColorMatrix in="SourceAlpha" type="matrix" values="0 0 0 0 0 0 0 0 0 0 0 0 0 0 0 0 0 0 127 0" result="hardAlpha"/>
<feOffset dy="3"/>
<feGaussianBlur stdDeviation="70"/>
<feColorMatrix type="matrix" values="0 0 0 0 0 0 0 0 0 0 0 0 0 0 0 0 0 0 0.5 0"/>
<feBlend mode="normal" in2="BackgroundImageFix" result="effect1_dropShadow_2_10690"/>
<feBlend mode="normal" in="SourceGraphic" in2="effect1_dropShadow_2_10690" result="shape"/>
</filter>
<clipPath id="clip0_2_10690">
<rect width="24" height="24" fill="white" transform="translate(0 0.5)"/>
</clipPath>
</defs>
</svg>
